<?xml version="1.0" standalone="no"?><!DOCTYPE svg PUBLIC "-//W3C//DTD SVG 1.1//EN" "http://www.w3.org/Graphics/SVG/1.1/DTD/svg11.dtd"><svg t="1571793983789" class="icon" viewBox="0 0 1024 1024" version="1.1" xmlns="http://www.w3.org/2000/svg" p-id="10162" width="128" height="128" xmlns:xlink="http://www.w3.org/1999/xlink"><defs><style type="text/css"></style></defs><path d="M723.5 958.7h-595c-35.4 0-64.2-28.8-64.2-64.2V775l210.4-210.4c15.6-15.6 41-15.6 56.6 0l386.1 386.1c2.4 2.5 4.5 5.1 6.1 8z" fill="#333333" p-id="10163"></path><path d="M959.7 469v425.5c0 35.4-28.8 64.2-64.2 64.2H564L527.4 922 380.6 775.3c-15.6-15.5-15.6-41 0-56.6l386.1-386.1c15.6-15.6 41-15.6 56.6 0L959.7 469z" fill="#333333" p-id="10164"></path><path d="M359 319m-65 0a65 65 0 1 0 130 0 65 65 0 1 0-130 0Z" fill="#333333" p-id="10165"></path><path d="M895.4 64.3H713V101h182.4c15.2 0 27.5 12.3 27.5 27.5v766c0 15.2-12.3 27.5-27.5 27.5H128.6c-15.2 0-27.5-12.3-27.5-27.5v-766c0-15.2 12.3-27.5 27.5-27.5H503l25.5-36.7h-400c-35.4 0-64.2 28.8-64.2 64.2v766c0 35.4 28.8 64.2 64.2 64.2h766.9c35.4 0 64.2-28.8 64.2-64.2v-766c0.1-35.4-28.8-64.2-64.2-64.2z" fill="#333333" p-id="10166"></path><path d="M765.2 64.3h-58.1l-100.9 95.4h-0.1l-29.4 27.8 41 81.1L531 339l18.9-60.8-67.2-94 51.4-79.9h0.2l25.6-40h-47.6l-11.8 18.4-51.5 79.9-14.7 22.8 15.8 22.1 55.7 77.8-13 41.8-39.3 126.4 102.7-83.4 86.7-70.5 25-20.3-14.5-28.7-27.5-54.6 66.2-62.6z" fill="#333333" p-id="10167"></path></svg>